# xmcd
#
# Track frame offsets: 
#        150
#        16815
#        34883
#        49728
#        64885
#        81113
#        102028
#        125975
#        146325
#        167940
#        188823
#
# Disc length: 2770 seconds
#
# Revision: 2
# Processed by: cddbd v1.5.2PL0 Copyright (c) Steve Scherf et al.
# Submitted via: ExactAudioCopy v0.95b4
#
DISCID=950ad00b
DTITLE=Joe Pass - Six String Santa
DYEAR=1992
DGENRE=Jazz
TTITLE0=Let It Snow, Let It Snow, Let It Snow
TTITLE1=Home For The Holidays
TTITLE2=White Christmas
TTITLE3=God Rest Ye Merry Gentlemen
TTITLE4=O Christmas Tree
TTITLE5=Angels We Have Heard On High/Joy To The World
TTITLE6=Happy Holiday Blues
TTITLE7=It Came Upon A Midnight Clear
TTITLE8=Santa Claus Is Coming To Town
TTITLE9=Have Yourself A Merry Little Christmas
TTITLE10=Winter Wonderland
EXTD=
EXTT0=
EXTT1=
EXTT2=
EXTT3=
EXTT4=
EXTT5=
EXTT6=
EXTT7=
EXTT8=
EXTT9=
EXTT10=
PLAYORDER=
